<?xml version="1.0" encoding="UTF-8" standalone="no"?>
<svg width="400" height="400" viewBox="0 0 400 400" fill="none" xmlns="http://www.w3.org/2000/svg">
  <!-- Background -->
  <rect width="400" height="400" fill="#f9e8c1"/>
  
  <!-- Decorative elements -->
  <rect x="20" y="20" width="360" height="360" stroke="#c49a6c" stroke-width="4" fill="none"/>
  <rect x="40" y="40" width="320" height="320" stroke="#8B4513" stroke-width="2" fill="none"/>
  
  <!-- Grain texture pattern -->
  <g opacity="0.1">
    <path d="M0,0 L400,400 M50,0 L450,400 M100,0 L500,400 M150,0 L550,400 M200,0 L600,400 M250,0 L650,400 M300,0 L700,400 M350,0 L750,400" stroke="#2c1810" stroke-width="0.5"/>
    <path d="M0,400 L400,0 M50,400 L450,0 M100,400 L500,0 M150,400 L550,0 M200,400 L600,0 M250,400 L650,0 M300,400 L700,0 M350,400 L750,0" stroke="#2c1810" stroke-width="0.5"/>
  </g>
  
  <!-- Logo/Brand element -->
  <g transform="translate(200, 150)">
    <!-- Olive branch icon -->
    <path d="M-60,0 C-40,30 -20,50 0,60 C20,50 40,30 60,0 C40,-30 20,-50 0,-60 C-20,-50 -40,-30 -60,0 Z" fill="#8B4513" opacity="0.3"/>
    <path d="M-40,0 C-26.67,20 -13.33,33.33 0,40 C13.33,33.33 26.67,20 40,0 C26.67,-20 13.33,-33.33 0,-40 C-13.33,-33.33 -26.67,-20 -40,0 Z" fill="#2c1810" opacity="0.5"/>
  </g>
  
  <!-- Text label placeholder -->
  <rect x="50" y="230" width="300" height="70" fill="#2c1810" opacity="0.7" rx="5" ry="5"/>
  
  <!-- "Hollyand" text -->
  <text x="200" y="270" font-family="serif" font-size="32" font-weight="bold" text-anchor="middle" fill="#f9e8c1">HOLLYAND</text>
  
  <!-- Decorative line -->
  <line x1="150" y1="290" x2="250" y2="290" stroke="#c49a6c" stroke-width="3"/>
</svg>